<svg width="32" height="31" viewBox="0 0 32 31" fill="none" xmlns="http://www.w3.org/2000/svg">
<path d="M30.25 14.4584C30.2554 16.5482 29.7672 18.6097 28.825 20.475C27.7079 22.7103 25.9904 24.5904 23.8651 25.9047C21.7398 27.2191 19.2906 27.9157 16.7917 27.9167C14.7019 27.9222 12.6403 27.4339 10.775 26.4917L1.75 29.5L4.75833 20.475C3.81614 18.6097 3.32788 16.5482 3.33333 14.4584C3.3343 11.9595 4.03097 9.51023 5.34531 7.38492C6.65964 5.25961 8.53974 3.54219 10.775 2.42505C12.6403 1.48285 14.7019 0.994596 16.7917 1.00005H17.5833C20.8836 1.18212 24.0007 2.57508 26.3378 4.91224C28.675 7.24939 30.0679 10.3665 30.25 13.6667V14.4584Z" stroke="black" stroke-width="2" stroke-linecap="round" stroke-linejoin="round"/>
</svg>
