<svg width="15" height="13" viewBox="0 0 15 13" fill="none" xmlns="http://www.w3.org/2000/svg">
<path d="M12.9976 1.97248C12.6799 1.66418 12.3028 1.41961 11.8877 1.25275C11.4726 1.08588 11.0276 1 10.5783 1C10.129 1 9.68407 1.08588 9.26897 1.25275C8.85386 1.41961 8.47671 1.66418 8.15907 1.97248L7.49983 2.61202L6.8406 1.97248C6.19898 1.35002 5.32874 1.00032 4.42135 1.00032C3.51395 1.00032 2.64372 1.35002 2.00209 1.97248C1.36046 2.59494 1 3.43918 1 4.31947C1 5.19977 1.36046 6.04401 2.00209 6.66647L2.66132 7.30601L7.49983 12L12.3383 7.30601L12.9976 6.66647C13.3154 6.35831 13.5675 5.99243 13.7395 5.58972C13.9115 5.18702 14 4.75538 14 4.31947C14 3.88357 13.9115 3.45193 13.7395 3.04923C13.5675 2.64652 13.3154 2.28064 12.9976 1.97248V1.97248Z" stroke="black" stroke-linecap="round" stroke-linejoin="round"/>
</svg>
