<svg width="29" height="26" viewBox="0 0 29 26" fill="none" xmlns="http://www.w3.org/2000/svg">
<path d="M26.7638 2.29859C26.0552 1.56987 25.2139 0.991797 24.2879 0.597398C23.3619 0.202998 22.3694 0 21.367 0C20.3647 0 19.3722 0.202998 18.4462 0.597398C17.5202 0.991797 16.6788 1.56987 15.9702 2.29859L14.4996 3.81023L13.029 2.29859C11.5977 0.827316 9.65643 0.000762612 7.63223 0.000762628C5.60804 0.000762643 3.66675 0.827316 2.23543 2.29859C0.804108 3.76986 1.50814e-08 5.76534 0 7.84603C-1.50814e-08 9.92673 0.804108 11.9222 2.23543 13.3935L3.70602 14.9051L14.4996 26L25.2932 14.9051L26.7638 13.3935C27.4728 12.6651 28.0351 11.8003 28.4188 10.8484C28.8025 9.89658 29 8.87635 29 7.84603C29 6.81571 28.8025 5.79548 28.4188 4.84363C28.0351 3.89178 27.4728 3.02697 26.7638 2.29859Z" fill="#FF0000"/>
</svg>
